<mxfile host="65bd71144e">
    <diagram id="122HEouIx7L_EkewqmzW" name="Model">
        <mxGraphModel dx="1209" dy="550" grid="1" gridSize="10" guides="1" tooltips="1" connect="1" arrows="1" fold="1" page="1" pageScale="1" pageWidth="1100" pageHeight="850" math="0" shadow="0">
            <root>
                <mxCell id="0"/>
                <mxCell id="1" parent="0"/>
                <mxCell id="21" value="1" style="edgeStyle=none;html=1;endArrow=none;endFill=0;" parent="1" source="5" target="11" edge="1">
                    <mxGeometry relative="1" as="geometry">
                        <Array as="points"/>
                    </mxGeometry>
                </mxCell>
                <mxCell id="23" value="1" style="edgeStyle=none;html=1;endArrow=none;endFill=0;" parent="1" source="5" target="8" edge="1">
                    <mxGeometry relative="1" as="geometry"/>
                </mxCell>
                <mxCell id="25" value="1" style="edgeStyle=none;html=1;endArrow=none;endFill=0;" parent="1" source="5" target="12" edge="1">
                    <mxGeometry relative="1" as="geometry"/>
                </mxCell>
                <mxCell id="27" value="1" style="edgeStyle=none;html=1;endArrow=none;endFill=0;" parent="1" source="5" target="13" edge="1">
                    <mxGeometry relative="1" as="geometry"/>
                </mxCell>
                <mxCell id="63" value="1" style="edgeStyle=none;html=1;endArrow=none;endFill=0;" parent="1" source="5" target="62" edge="1">
                    <mxGeometry relative="1" as="geometry"/>
                </mxCell>
                <mxCell id="67" value="N" style="edgeStyle=none;html=1;endArrow=none;endFill=0;" parent="1" source="5" target="66" edge="1">
                    <mxGeometry relative="1" as="geometry"/>
                </mxCell>
                <mxCell id="5" value="User" style="whiteSpace=wrap;html=1;align=center;" parent="1" vertex="1">
                    <mxGeometry x="210" y="250" width="100" height="40" as="geometry"/>
                </mxCell>
                <mxCell id="6" value="Email" style="whiteSpace=wrap;html=1;align=center;" parent="1" vertex="1">
                    <mxGeometry x="210" y="50" width="100" height="40" as="geometry"/>
                </mxCell>
                <mxCell id="7" value="Session" style="whiteSpace=wrap;html=1;align=center;" parent="1" vertex="1">
                    <mxGeometry x="70" y="370" width="100" height="40" as="geometry"/>
                </mxCell>
                <mxCell id="24" value="1" style="edgeStyle=none;html=1;endArrow=none;endFill=0;" parent="1" source="8" target="6" edge="1">
                    <mxGeometry relative="1" as="geometry"/>
                </mxCell>
                <mxCell id="8" value="primary&lt;br&gt;email" style="shape=rhombus;perimeter=rhombusPerimeter;whiteSpace=wrap;html=1;align=center;" parent="1" vertex="1">
                    <mxGeometry x="190" y="140" width="70" height="60" as="geometry"/>
                </mxCell>
                <mxCell id="42" value="1" style="edgeStyle=none;html=1;endArrow=none;endFill=0;" parent="1" source="10" target="41" edge="1">
                    <mxGeometry relative="1" as="geometry">
                        <Array as="points">
                            <mxPoint x="120" y="90"/>
                        </Array>
                    </mxGeometry>
                </mxCell>
                <mxCell id="10" value="Profile" style="whiteSpace=wrap;html=1;align=center;" parent="1" vertex="1">
                    <mxGeometry x="70" y="130" width="100" height="40" as="geometry"/>
                </mxCell>
                <mxCell id="22" value="1" style="edgeStyle=none;html=1;endArrow=none;endFill=0;" parent="1" source="11" target="10" edge="1">
                    <mxGeometry relative="1" as="geometry"/>
                </mxCell>
                <mxCell id="11" value="has&lt;br&gt;profile" style="shape=rhombus;perimeter=rhombusPerimeter;whiteSpace=wrap;html=1;align=center;" parent="1" vertex="1">
                    <mxGeometry x="85" y="200" width="70" height="60" as="geometry"/>
                </mxCell>
                <mxCell id="26" value="N" style="edgeStyle=none;html=1;endArrow=none;endFill=0;" parent="1" source="12" target="6" edge="1">
                    <mxGeometry relative="1" as="geometry"/>
                </mxCell>
                <mxCell id="12" value="has&lt;br&gt;email" style="shape=rhombus;perimeter=rhombusPerimeter;whiteSpace=wrap;html=1;align=center;" parent="1" vertex="1">
                    <mxGeometry x="270" y="140" width="70" height="60" as="geometry"/>
                </mxCell>
                <mxCell id="28" value="N" style="edgeStyle=none;html=1;endArrow=none;endFill=0;" parent="1" source="13" target="7" edge="1">
                    <mxGeometry relative="1" as="geometry"/>
                </mxCell>
                <mxCell id="13" value="has&lt;br&gt;session" style="shape=rhombus;perimeter=rhombusPerimeter;whiteSpace=wrap;html=1;align=center;" parent="1" vertex="1">
                    <mxGeometry x="85" y="280" width="70" height="60" as="geometry"/>
                </mxCell>
                <mxCell id="43" value="1" style="edgeStyle=none;html=1;endArrow=none;endFill=0;" parent="1" source="41" target="6" edge="1">
                    <mxGeometry relative="1" as="geometry">
                        <Array as="points"/>
                    </mxGeometry>
                </mxCell>
                <mxCell id="41" value="public&lt;br&gt;email" style="shape=rhombus;perimeter=rhombusPerimeter;whiteSpace=wrap;html=1;align=center;" parent="1" vertex="1">
                    <mxGeometry x="85" y="40" width="70" height="60" as="geometry"/>
                </mxCell>
                <mxCell id="45" style="edgeStyle=none;html=1;endArrow=none;endFill=0;" parent="1" source="44" target="7" edge="1">
                    <mxGeometry relative="1" as="geometry"/>
                </mxCell>
                <mxCell id="44" value="device" style="ellipse;whiteSpace=wrap;html=1;align=center;" parent="1" vertex="1">
                    <mxGeometry x="95" y="430" width="50" height="30" as="geometry"/>
                </mxCell>
                <mxCell id="55" style="edgeStyle=none;html=1;endArrow=none;endFill=0;" parent="1" source="46" target="44" edge="1">
                    <mxGeometry relative="1" as="geometry"/>
                </mxCell>
                <mxCell id="46" value="client" style="ellipse;whiteSpace=wrap;html=1;align=center;" parent="1" vertex="1">
                    <mxGeometry x="40" y="425" width="40" height="20" as="geometry"/>
                </mxCell>
                <mxCell id="56" style="edgeStyle=none;html=1;endArrow=none;endFill=0;" parent="1" source="47" target="44" edge="1">
                    <mxGeometry relative="1" as="geometry"/>
                </mxCell>
                <mxCell id="47" value="os&lt;span style=&quot;color: rgba(0, 0, 0, 0); font-family: monospace; font-size: 0px; text-align: start;&quot;&gt;%3CmxGraphModel%3E%3Croot%3E%3CmxCell%20id%3D%220%22%2F%3E%3CmxCell%20id%3D%221%22%20parent%3D%220%22%2F%3E%3CmxCell%20id%3D%222%22%20value%3D%22client%22%20style%3D%22ellipse%3BwhiteSpace%3Dwrap%3Bhtml%3D1%3Balign%3Dcenter%3B%22%20vertex%3D%221%22%20parent%3D%221%22%3E%3CmxGeometry%20x%3D%22-5%22%20y%3D%22415%22%20width%3D%2240%22%20height%3D%2220%22%20as%3D%22geometry%22%2F%3E%3C%2FmxCell%3E%3C%2Froot%3E%3C%2FmxGraphModel%3E&lt;/span&gt;" style="ellipse;whiteSpace=wrap;html=1;align=center;" parent="1" vertex="1">
                    <mxGeometry x="40" y="450" width="40" height="20" as="geometry"/>
                </mxCell>
                <mxCell id="57" style="edgeStyle=none;html=1;endArrow=none;endFill=0;" parent="1" source="48" target="44" edge="1">
                    <mxGeometry relative="1" as="geometry"/>
                </mxCell>
                <mxCell id="48" value="brand" style="ellipse;whiteSpace=wrap;html=1;align=center;" parent="1" vertex="1">
                    <mxGeometry x="60" y="470" width="40" height="20" as="geometry"/>
                </mxCell>
                <mxCell id="58" style="edgeStyle=none;html=1;endArrow=none;endFill=0;" parent="1" source="49" target="44" edge="1">
                    <mxGeometry relative="1" as="geometry"/>
                </mxCell>
                <mxCell id="49" value="model" style="ellipse;whiteSpace=wrap;html=1;align=center;" parent="1" vertex="1">
                    <mxGeometry x="100" y="480" width="40" height="20" as="geometry"/>
                </mxCell>
                <mxCell id="59" style="edgeStyle=none;html=1;endArrow=none;endFill=0;" parent="1" source="50" target="44" edge="1">
                    <mxGeometry relative="1" as="geometry"/>
                </mxCell>
                <mxCell id="50" value="type" style="ellipse;whiteSpace=wrap;html=1;align=center;" parent="1" vertex="1">
                    <mxGeometry x="140" y="470" width="40" height="20" as="geometry"/>
                </mxCell>
                <mxCell id="60" style="edgeStyle=none;html=1;endArrow=none;endFill=0;" parent="1" source="51" target="44" edge="1">
                    <mxGeometry relative="1" as="geometry"/>
                </mxCell>
                <mxCell id="51" value="bot" style="ellipse;whiteSpace=wrap;html=1;align=center;" parent="1" vertex="1">
                    <mxGeometry x="160" y="450" width="40" height="20" as="geometry"/>
                </mxCell>
                <mxCell id="61" style="edgeStyle=none;html=1;endArrow=none;endFill=0;" parent="1" source="52" target="44" edge="1">
                    <mxGeometry relative="1" as="geometry"/>
                </mxCell>
                <mxCell id="52" value="ip" style="ellipse;whiteSpace=wrap;html=1;align=center;" parent="1" vertex="1">
                    <mxGeometry x="155" y="425" width="40" height="20" as="geometry"/>
                </mxCell>
                <mxCell id="65" value="N" style="edgeStyle=none;html=1;endArrow=none;endFill=0;" parent="1" source="62" target="64" edge="1">
                    <mxGeometry relative="1" as="geometry"/>
                </mxCell>
                <mxCell id="62" value="own&lt;br&gt;metamodel" style="shape=rhombus;perimeter=rhombusPerimeter;whiteSpace=wrap;html=1;align=center;" parent="1" vertex="1">
                    <mxGeometry x="370" y="200" width="70" height="60" as="geometry"/>
                </mxCell>
                <mxCell id="78" value="1" style="edgeStyle=none;html=1;endArrow=none;endFill=0;" parent="1" source="64" target="149" edge="1">
                    <mxGeometry relative="1" as="geometry">
                        <mxPoint x="550" y="340" as="targetPoint"/>
                    </mxGeometry>
                </mxCell>
                <mxCell id="143" style="edgeStyle=none;html=1;endArrow=none;endFill=0;" parent="1" source="64" target="142" edge="1">
                    <mxGeometry relative="1" as="geometry"/>
                </mxCell>
                <mxCell id="64" value="MetaModel" style="whiteSpace=wrap;html=1;align=center;" parent="1" vertex="1">
                    <mxGeometry x="500" y="250" width="100" height="40" as="geometry"/>
                </mxCell>
                <mxCell id="68" value="M" style="edgeStyle=none;html=1;endArrow=none;endFill=0;" parent="1" source="66" target="64" edge="1">
                    <mxGeometry relative="1" as="geometry"/>
                </mxCell>
                <mxCell id="66" value="collaborate&lt;br&gt;in" style="shape=rhombus;perimeter=rhombusPerimeter;whiteSpace=wrap;html=1;align=center;" parent="1" vertex="1">
                    <mxGeometry x="370" y="270" width="70" height="60" as="geometry"/>
                </mxCell>
                <mxCell id="105" value="N" style="edgeStyle=none;html=1;endArrow=none;endFill=0;" parent="1" source="69" target="104" edge="1">
                    <mxGeometry relative="1" as="geometry"/>
                </mxCell>
                <mxCell id="115" value="1" style="edgeStyle=none;html=1;endArrow=none;endFill=0;" parent="1" source="69" target="159" edge="1">
                    <mxGeometry relative="1" as="geometry">
                        <mxPoint x="384.70000000000005" y="547.4000000000001" as="targetPoint"/>
                    </mxGeometry>
                </mxCell>
                <mxCell id="145" style="edgeStyle=none;html=1;endArrow=none;endFill=0;" parent="1" source="69" target="144" edge="1">
                    <mxGeometry relative="1" as="geometry"/>
                </mxCell>
                <mxCell id="69" value="Model" style="whiteSpace=wrap;html=1;align=center;" parent="1" vertex="1">
                    <mxGeometry x="210" y="450" width="100" height="40" as="geometry"/>
                </mxCell>
                <mxCell id="70" value="N" style="edgeStyle=none;html=1;endArrow=none;endFill=0;" parent="1" source="69" target="73" edge="1">
                    <mxGeometry relative="1" as="geometry">
                        <mxPoint x="253" y="450" as="sourcePoint"/>
                    </mxGeometry>
                </mxCell>
                <mxCell id="71" value="M" style="edgeStyle=none;html=1;endArrow=none;endFill=0;" parent="1" source="69" target="75" edge="1">
                    <mxGeometry relative="1" as="geometry">
                        <mxPoint x="269" y="450" as="sourcePoint"/>
                    </mxGeometry>
                </mxCell>
                <mxCell id="72" value="1" style="edgeStyle=none;html=1;endArrow=none;endFill=0;" parent="1" source="73" target="5" edge="1">
                    <mxGeometry relative="1" as="geometry">
                        <mxPoint x="253" y="290" as="targetPoint"/>
                    </mxGeometry>
                </mxCell>
                <mxCell id="73" value="own&lt;br&gt;model" style="shape=rhombus;perimeter=rhombusPerimeter;whiteSpace=wrap;html=1;align=center;" parent="1" vertex="1">
                    <mxGeometry x="190" y="340" width="70" height="60" as="geometry"/>
                </mxCell>
                <mxCell id="74" value="N" style="edgeStyle=none;html=1;endArrow=none;endFill=0;" parent="1" source="75" target="5" edge="1">
                    <mxGeometry relative="1" as="geometry">
                        <mxPoint x="269" y="290" as="targetPoint"/>
                    </mxGeometry>
                </mxCell>
                <mxCell id="75" value="collaborate&lt;br&gt;in" style="shape=rhombus;perimeter=rhombusPerimeter;whiteSpace=wrap;html=1;align=center;" parent="1" vertex="1">
                    <mxGeometry x="270" y="340" width="70" height="60" as="geometry"/>
                </mxCell>
                <mxCell id="92" value="M" style="edgeStyle=none;html=1;endArrow=none;endFill=0;" parent="1" source="152" target="91" edge="1">
                    <mxGeometry relative="1" as="geometry">
                        <mxPoint x="579" y="450" as="sourcePoint"/>
                        <Array as="points">
                            <mxPoint x="610" y="400"/>
                        </Array>
                    </mxGeometry>
                </mxCell>
                <mxCell id="99" style="edgeStyle=none;html=1;endArrow=none;endFill=0;" parent="1" source="152" target="98" edge="1">
                    <mxGeometry relative="1" as="geometry">
                        <mxPoint x="500" y="470" as="sourcePoint"/>
                    </mxGeometry>
                </mxCell>
                <mxCell id="93" value="N" style="edgeStyle=none;html=1;endArrow=none;endFill=0;" parent="1" source="91" target="152" edge="1">
                    <mxGeometry relative="1" as="geometry">
                        <mxPoint x="811" y="290" as="targetPoint"/>
                        <Array as="points">
                            <mxPoint x="650" y="440"/>
                        </Array>
                    </mxGeometry>
                </mxCell>
                <mxCell id="91" value="constraint" style="shape=rhombus;perimeter=rhombusPerimeter;whiteSpace=wrap;html=1;align=center;" parent="1" vertex="1">
                    <mxGeometry x="660" y="340" width="70" height="60" as="geometry"/>
                </mxCell>
                <mxCell id="97" style="edgeStyle=none;html=1;endArrow=none;endFill=0;" parent="1" source="94" target="91" edge="1">
                    <mxGeometry relative="1" as="geometry"/>
                </mxCell>
                <mxCell id="94" value="lower&lt;br&gt;bound" style="ellipse;whiteSpace=wrap;html=1;align=center;" parent="1" vertex="1">
                    <mxGeometry x="720" y="390" width="50" height="40" as="geometry"/>
                </mxCell>
                <mxCell id="96" style="edgeStyle=none;html=1;endArrow=none;endFill=0;" parent="1" source="95" target="91" edge="1">
                    <mxGeometry relative="1" as="geometry"/>
                </mxCell>
                <mxCell id="95" value="upper&lt;br&gt;bound" style="ellipse;whiteSpace=wrap;html=1;align=center;" parent="1" vertex="1">
                    <mxGeometry x="720" y="310" width="50" height="40" as="geometry"/>
                </mxCell>
                <mxCell id="98" value="GModel" style="ellipse;whiteSpace=wrap;html=1;align=center;" parent="1" vertex="1">
                    <mxGeometry x="430" y="470" width="60" height="40" as="geometry"/>
                </mxCell>
                <mxCell id="102" style="edgeStyle=none;html=1;endArrow=none;endFill=0;" parent="1" source="100" target="64" edge="1">
                    <mxGeometry relative="1" as="geometry"/>
                </mxCell>
                <mxCell id="100" value="tag" style="ellipse;whiteSpace=wrap;html=1;align=center;" parent="1" vertex="1">
                    <mxGeometry x="480" y="210" width="30" height="30" as="geometry"/>
                </mxCell>
                <mxCell id="103" style="edgeStyle=none;html=1;endArrow=none;endFill=0;" parent="1" source="101" target="64" edge="1">
                    <mxGeometry relative="1" as="geometry"/>
                </mxCell>
                <mxCell id="101" value="version" style="ellipse;whiteSpace=wrap;html=1;align=center;" parent="1" vertex="1">
                    <mxGeometry x="560" y="210" width="60" height="30" as="geometry"/>
                </mxCell>
                <mxCell id="106" value="1" style="edgeStyle=none;html=1;endArrow=none;endFill=0;" parent="1" source="104" target="64" edge="1">
                    <mxGeometry relative="1" as="geometry"/>
                </mxCell>
                <mxCell id="104" value="instance" style="shape=rhombus;perimeter=rhombusPerimeter;whiteSpace=wrap;html=1;align=center;" parent="1" vertex="1">
                    <mxGeometry x="380" y="345" width="70" height="60" as="geometry"/>
                </mxCell>
                <mxCell id="121" value="N" style="edgeStyle=none;html=1;endArrow=none;endFill=0;" parent="1" source="165" target="120" edge="1">
                    <mxGeometry relative="1" as="geometry">
                        <mxPoint x="550" y="630" as="sourcePoint"/>
                    </mxGeometry>
                </mxCell>
                <mxCell id="122" value="1" style="edgeStyle=none;html=1;endArrow=none;endFill=0;" parent="1" source="120" target="152" edge="1">
                    <mxGeometry relative="1" as="geometry">
                        <mxPoint x="550" y="490" as="targetPoint"/>
                    </mxGeometry>
                </mxCell>
                <mxCell id="120" value="is of&lt;br&gt;type" style="shape=rhombus;perimeter=rhombusPerimeter;whiteSpace=wrap;html=1;align=center;" parent="1" vertex="1">
                    <mxGeometry x="515" y="530" width="70" height="60" as="geometry"/>
                </mxCell>
                <mxCell id="137" style="edgeStyle=none;html=1;endArrow=none;endFill=0;" parent="1" source="170" target="136" edge="1">
                    <mxGeometry relative="1" as="geometry">
                        <mxPoint x="802.5" y="630" as="sourcePoint"/>
                    </mxGeometry>
                </mxCell>
                <mxCell id="131" value="1" style="edgeStyle=none;html=1;endArrow=none;endFill=0;" parent="1" target="165" edge="1">
                    <mxGeometry relative="1" as="geometry">
                        <mxPoint x="660" y="650" as="sourcePoint"/>
                        <mxPoint x="600" y="650" as="targetPoint"/>
                    </mxGeometry>
                </mxCell>
                <mxCell id="136" value="value" style="ellipse;whiteSpace=wrap;html=1;align=center;" parent="1" vertex="1">
                    <mxGeometry x="740" y="600" width="50" height="20" as="geometry"/>
                </mxCell>
                <mxCell id="142" value="tags" style="ellipse;shape=doubleEllipse;margin=3;whiteSpace=wrap;html=1;align=center;" parent="1" vertex="1">
                    <mxGeometry x="570" y="300" width="40" height="30" as="geometry"/>
                </mxCell>
                <mxCell id="144" value="tags" style="ellipse;shape=doubleEllipse;margin=3;whiteSpace=wrap;html=1;align=center;" parent="1" vertex="1">
                    <mxGeometry x="185" y="500" width="40" height="30" as="geometry"/>
                </mxCell>
                <mxCell id="149" value="has&lt;br&gt;element" style="shape=rhombus;double=1;perimeter=rhombusPerimeter;whiteSpace=wrap;html=1;align=center;" parent="1" vertex="1">
                    <mxGeometry x="515" y="340" width="70" height="60" as="geometry"/>
                </mxCell>
                <mxCell id="150" value="N" style="shape=link;html=1;rounded=0;endArrow=none;endFill=0;" parent="1" source="149" target="152" edge="1">
                    <mxGeometry relative="1" as="geometry">
                        <mxPoint x="520" y="308.82" as="sourcePoint"/>
                        <mxPoint x="550" y="450" as="targetPoint"/>
                    </mxGeometry>
                </mxCell>
                <mxCell id="152" value="MetaElement" style="shape=ext;margin=3;double=1;whiteSpace=wrap;html=1;align=center;" parent="1" vertex="1">
                    <mxGeometry x="500" y="450" width="100" height="40" as="geometry"/>
                </mxCell>
                <mxCell id="159" value="has&lt;br&gt;element" style="shape=rhombus;double=1;perimeter=rhombusPerimeter;whiteSpace=wrap;html=1;align=center;" parent="1" vertex="1">
                    <mxGeometry x="370" y="530" width="70" height="60" as="geometry"/>
                </mxCell>
                <mxCell id="160" value="N" style="shape=link;html=1;rounded=0;endArrow=none;endFill=0;" parent="1" source="159" target="165" edge="1">
                    <mxGeometry relative="1" as="geometry">
                        <mxPoint x="355" y="538.8199999999999" as="sourcePoint"/>
                        <mxPoint x="517.7777777777778" y="630" as="targetPoint"/>
                    </mxGeometry>
                </mxCell>
                <mxCell id="165" value="Element" style="shape=ext;margin=3;double=1;whiteSpace=wrap;html=1;align=center;" parent="1" vertex="1">
                    <mxGeometry x="500" y="630" width="100" height="40" as="geometry"/>
                </mxCell>
                <mxCell id="170" value="Label" style="shape=ext;margin=3;double=1;whiteSpace=wrap;html=1;align=center;" parent="1" vertex="1">
                    <mxGeometry x="790" y="630" width="100" height="40" as="geometry"/>
                </mxCell>
                <mxCell id="171" value="has&lt;br&gt;label" style="shape=rhombus;double=1;perimeter=rhombusPerimeter;whiteSpace=wrap;html=1;align=center;" parent="1" vertex="1">
                    <mxGeometry x="660" y="620" width="70" height="60" as="geometry"/>
                </mxCell>
                <mxCell id="172" value="N" style="shape=link;html=1;rounded=0;endArrow=none;endFill=0;" parent="1" source="171" target="170" edge="1">
                    <mxGeometry relative="1" as="geometry">
                        <mxPoint x="540" y="680" as="sourcePoint"/>
                        <mxPoint x="850" y="680" as="targetPoint"/>
                        <Array as="points"/>
                    </mxGeometry>
                </mxCell>
                <mxCell id="173" value="tag" style="ellipse;whiteSpace=wrap;html=1;align=center;" parent="1" vertex="1">
                    <mxGeometry x="615" y="470" width="35" height="30" as="geometry"/>
                </mxCell>
                <mxCell id="174" style="edgeStyle=none;html=1;endArrow=none;endFill=0;" parent="1" source="173" target="152" edge="1">
                    <mxGeometry relative="1" as="geometry">
                        <mxPoint x="532.0821584279765" y="248.72972548633697" as="sourcePoint"/>
                        <mxPoint x="542.2222222222222" y="260" as="targetPoint"/>
                    </mxGeometry>
                </mxCell>
                <mxCell id="176" style="edgeStyle=none;html=1;endArrow=none;endFill=0;" parent="1" source="177" target="64" edge="1">
                    <mxGeometry relative="1" as="geometry">
                        <mxPoint x="578" y="260" as="targetPoint"/>
                    </mxGeometry>
                </mxCell>
                <mxCell id="177" value="logo" style="ellipse;whiteSpace=wrap;html=1;align=center;" parent="1" vertex="1">
                    <mxGeometry x="615" y="250" width="60" height="30" as="geometry"/>
                </mxCell>
                <mxCell id="178" value="AModel" style="ellipse;whiteSpace=wrap;html=1;align=center;" parent="1" vertex="1">
                    <mxGeometry x="430" y="420" width="60" height="40" as="geometry"/>
                </mxCell>
                <mxCell id="179" style="edgeStyle=none;html=1;endArrow=none;endFill=0;" parent="1" source="178" target="152" edge="1">
                    <mxGeometry relative="1" as="geometry">
                        <mxPoint x="510" y="480" as="sourcePoint"/>
                        <mxPoint x="490" y="480" as="targetPoint"/>
                    </mxGeometry>
                </mxCell>
                <mxCell id="180" value="name" style="ellipse;whiteSpace=wrap;html=1;align=center;" parent="1" vertex="1">
                    <mxGeometry x="530" y="180" width="40" height="30" as="geometry"/>
                </mxCell>
                <mxCell id="181" style="edgeStyle=none;html=1;endArrow=none;endFill=0;" parent="1" source="180" target="64" edge="1">
                    <mxGeometry relative="1" as="geometry">
                        <mxPoint x="610" y="277.36842105263156" as="targetPoint"/>
                        <mxPoint x="625.1178207792243" y="276.3280968542567" as="sourcePoint"/>
                    </mxGeometry>
                </mxCell>
                <mxCell id="183" value="name" style="ellipse;whiteSpace=wrap;html=1;align=center;" parent="1" vertex="1">
                    <mxGeometry x="560" y="500" width="40" height="30" as="geometry"/>
                </mxCell>
                <mxCell id="185" style="edgeStyle=none;html=1;endArrow=none;endFill=0;" parent="1" source="152" target="183" edge="1">
                    <mxGeometry relative="1" as="geometry">
                        <mxPoint x="516.5252662499274" y="512.4808589015702" as="sourcePoint"/>
                        <mxPoint x="533.3333333333333" y="500" as="targetPoint"/>
                    </mxGeometry>
                </mxCell>
                <mxCell id="186" value="preview" style="ellipse;whiteSpace=wrap;html=1;align=center;" parent="1" vertex="1">
                    <mxGeometry x="610" y="510" width="60" height="30" as="geometry"/>
                </mxCell>
                <mxCell id="187" style="edgeStyle=none;html=1;endArrow=none;endFill=0;" parent="1" source="186" target="152" edge="1">
                    <mxGeometry relative="1" as="geometry">
                        <mxPoint x="626.3542967100807" y="490.544001710457" as="sourcePoint"/>
                        <mxPoint x="610" y="487.8947368421053" as="targetPoint"/>
                    </mxGeometry>
                </mxCell>
                <mxCell id="188" value="default&lt;br&gt;Model" style="ellipse;whiteSpace=wrap;html=1;align=center;" parent="1" vertex="1">
                    <mxGeometry x="450" y="520" width="60" height="40" as="geometry"/>
                </mxCell>
                <mxCell id="190" style="edgeStyle=none;html=1;endArrow=none;endFill=0;" parent="1" source="152" target="188" edge="1">
                    <mxGeometry relative="1" as="geometry">
                        <mxPoint x="510" y="489.090909090909" as="sourcePoint"/>
                        <mxPoint x="478.94291463713034" y="494.7376518841579" as="targetPoint"/>
                    </mxGeometry>
                </mxCell>
            </root>
        </mxGraphModel>
    </diagram>
</mxfile>